8_ID_stride5.mot
nRows=10
nColumns=38

name 8_ID_stride5.mot
datacolumns 38
datarows 10
range 2.4600000000 2.5050000000
endheader
time	pelvis_tilt_moment	pelvis_list_moment	pelvis_rotation_moment	pelvis_tx_force	pelvis_ty_force	pelvis_tz_force	hip_flexion_r_moment	hip_adduction_r_moment	hip_rotation_r_moment	knee_angle_r_moment	ankle_angle_r_moment	subtalar_angle_r_moment	mtp_angle_r_moment	hip_flexion_l_moment	hip_adduction_l_moment	hip_rotation_l_moment	knee_angle_l_moment	ankle_angle_l_moment	subtalar_angle_l_moment	mtp_angle_l_moment	lumbar_extension_moment	lumbar_bending_moment	lumbar_rotation_moment	arm_flex_r_moment	arm_add_r_moment	arm_rot_r_moment	elbow_flex_r_moment	pro_sup_r_moment	wrist_flex_r_moment	wrist_dev_r_moment	arm_flex_l_moment	arm_add_l_moment	arm_rot_l_moment	elbow_flex_l_moment	pro_sup_l_moment	wrist_flex_l_moment	wrist_dev_l_moment
        2.4600000000	      -16.3791762505	        1.7304596116	        6.3289230704	      122.3370375556	      365.6368319190	      159.4113591594	       64.0116784748	       10.8192674562	       -2.0697573967	       20.4986569538	        4.7364548728	       -0.4566040943	        0.2486764842	      -53.0200145925	       13.7894687637	       -4.3752775690	      -40.4553979460	        2.8346685641	       -4.9178734459	        0.1073556635	        9.2818822770	       12.1717928698	      -13.5732075457	       -8.2194675729	       -2.7670832844	       -1.2517555647	       -1.1207817444	       -0.0194705117	       -0.1452424367	        0.1270059560	       -6.5129389625	        2.9279946953	        2.8894806937	       -1.1133002286	        0.0963441057	        0.2626002240	        0.2146708896	
        2.4650000000	      -34.0346429018	       39.6478444089	       21.3656946751	      158.8495330032	      465.7571266581	      110.6862367151	       63.2258073875	       10.8840922036	       -2.5599611076	       19.5972169004	        4.5703733464	       -0.3729539511	        0.2367050832	      -27.3829781049	       -6.7265465302	       -9.8702982927	      -21.6795249175	        8.5942178976	       -8.4580205961	        0.1951342223	       23.6467789046	       22.8952823781	       -9.2694155396	       -8.4636370959	       -2.4542512680	       -0.7992806500	       -0.2189073840	       -0.0232565045	       -0.0743584428	        0.0657557915	       -7.8343712985	        3.0801589971	        2.8228252562	       -0.2723436584	        0.0748272624	        0.2649988214	        0.1424455714	
        2.4700000000	      -50.3251737271	       64.2243445844	       35.4615355739	      159.7815419886	      449.9309862439	       27.2202479940	       66.0033919434	       11.8445176025	       -2.9671235127	       18.8030189343	        4.4435274491	       -0.3122910221	        0.2257411877	      -24.1789525517	      -29.6376038043	      -14.4191160374	       -4.1564834877	       12.7628481999	       -9.2069164393	        0.2742604125	       30.7154180936	       31.4148738774	       -5.0830624156	       -7.9223832956	       -2.0928163920	       -0.4331506142	        0.7305953422	       -0.0301451484	       -0.0122925927	       -0.0057580553	       -7.8297728689	        3.1437099416	        2.6430449366	        0.6333658654	        0.0496411989	        0.2574890480	        0.0585008732	
        2.4750000000	      -53.4904368184	       65.7460252725	       46.5226780447	      144.3225333018	      348.7652417288	      -82.6545384774	       72.9961664536	       13.8574136976	       -3.2485439423	       18.7319347422	        4.3603755819	       -0.2804445021	        0.2159019615	      -31.8620935097	      -50.0056161594	      -18.7994470251	        9.4488778071	       12.3782207086	       -8.7401731965	        0.3336746322	       29.3675153695	       32.7680509491	       -1.6204511228	       -6.4840248247	       -1.6574635720	       -0.1678550328	        1.4749690607	       -0.0364936269	        0.0315310677	       -0.0662776761	       -7.1906569517	        3.0628641883	        2.2918332652	        1.3571649250	        0.0247725396	        0.2326735109	       -0.0155900530	
        2.4800000000	      -49.4773164799	       48.8356034415	       53.5775645467	       97.4653100661	      133.1992489022	     -185.4916568168	       81.5467204980	       15.9380004566	       -3.3398239607	       19.3009657664	        4.3092867648	       -0.2728948431	        0.2071832656	      -63.3691742070	      -60.2375682101	      -24.2766213000	       14.9007984123	        6.0073279399	       -7.5840100155	        0.3616141821	       18.4404300436	       30.0035357387	        0.5370717137	       -4.5619825281	       -1.1313961853	        0.0179372756	        1.7666401165	       -0.0382508790	        0.0532115054	       -0.0935144069	       -5.5075683873	        2.6572440743	        1.7951533612	        1.6606983435	        0.0044970865	        0.1894960831	       -0.0598169740	
        2.4850000000	      -26.1845214311	        5.5794771846	       56.6899353110	       40.2563656440	     -123.2722123893	     -246.5941480160	       88.9559047608	       17.4139059695	       -3.3157214654	       20.8549264293	        4.2738487607	       -0.2819685328	        0.1997284715	     -108.3571422327	      -62.0320692996	      -32.3714985079	       15.1165268835	       -9.1969404693	       -7.2943847674	        0.3667677259	        0.8392207926	       19.5439347206	        1.3332842908	       -2.6255579958	       -0.5155469525	        0.1521287050	        1.7854815423	       -0.0353465643	        0.0590716916	       -0.0973633611	       -3.4958463528	        1.9457741539	        1.2198368056	        1.6927088652	       -0.0094830441	        0.1359522279	       -0.0749109357	
        2.4900000000	        5.9805118294	      -49.4658260908	       56.8953079527	      -13.7829893649	     -357.7583224438	     -253.6876300824	       93.1653535049	       17.9429414046	       -3.1479193341	       22.8020350485	        4.2330955874	       -0.2985950689	        0.1938985957	     -158.6768228334	      -51.8467569876	      -42.7265588142	        7.8554548926	      -29.8973655392	       -8.9889046488	        0.3396781501	      -15.9743445633	        6.9765535296	        0.5782560520	       -1.0841186545	        0.1364386635	        0.2559937348	        1.5126816180	       -0.0292120537	        0.0525957472	       -0.0791069176	       -1.6011484152	        1.0970627306	        0.6826226291	        1.4583876533	       -0.0174347204	        0.0862946014	       -0.0704183666	
        2.4950000000	       37.7558679769	      -94.1295459634	       54.5414181629	      -53.6509187247	     -509.7527876860	     -208.7626920948	       92.2394015897	       17.4182629352	       -3.0779683176	       24.6570953115	        4.1828730678	       -0.2989267204	        0.1928149295	     -197.9204376283	      -38.2707618833	      -51.3186305528	        7.9401429494	      -51.2290681731	      -11.0697748783	        0.2953242173	      -20.8454876785	       -3.0361746201	       -1.5026544170	       -0.3051983991	        0.7193187929	        0.2652785167	        1.4300320066	       -0.0297761485	        0.0419704019	       -0.0806829185	       -0.1914457646	        0.4029411909	        0.3890538473	        1.4564606056	       -0.0205280935	        0.0711962494	       -0.0747411965	
        2.5000000000	       54.0131545798	     -105.9913177699	       49.5317388032	      -65.9598581011	     -549.0817741457	     -128.5658671866	       89.5845075566	       16.3937432119	       -3.1107214797	       25.9773153468	        4.1375007632	       -0.2941219711	        0.1935701231	     -208.7882571371	      -30.8639438777	      -53.2816619209	       11.7090929394	      -67.9239315000	      -11.5805106835	        0.2419399730	      -19.5512239117	       -5.7013163695	       -4.7376584134	       -0.1392151354	        0.9555244387	        0.2386563918	        1.4934612645	       -0.0341357133	        0.0288322144	       -0.0947235290	        0.7335151837	        0.2203060490	        0.3492904892	        1.5553539171	       -0.0219903608	        0.0751182465	       -0.0931290942	
        2.5050000000	       57.4671685223	      -86.3952394455	       42.1706999895	      -65.7049485662	     -507.4260845134	      -45.0647042508	       84.2667021583	       15.2052004638	       -3.5592166485	       26.5580637049	        4.1063567130	       -0.2529366649	        0.2017884001	     -197.6036799186	      -29.5570631384	      -46.3930309867	       39.3214367262	      -76.9037097397	       -9.3046453112	        0.1886850746	        0.6997118657	       -1.4648054750	       -8.8830820691	       -0.4772976041	        0.9770755996	       -0.0123122712	        2.2150734321	       -0.0576076871	        0.0140773173	       -0.1746401297	        1.2699177930	        0.5572076015	        0.7131171305	        2.3816538563	       -0.0228361894	        0.1387403273	       -0.1620965635	
